<svg width="750" height="600" viewBox="0 0 750 600" fill="none" xmlns="http://www.w3.org/2000/svg">
<path d="M53.55 449.43C47.8 448.74 42.48 447.25 37.61 444.99C32.73 442.73 28.5 439.89 24.93 436.5C21.36 433.1 18.53 429.23 16.43 424.87C14.34 420.52 13.29 415.9 13.29 411.02C13.29 405.27 15.29 400.39 19.3 396.38C23.3 392.37 28.19 390.37 33.94 390.37C39.69 390.37 44.57 392.37 48.58 396.38C52.59 400.39 54.59 405.27 54.59 411.02C54.59 417.12 52.32 422.17 47.79 426.18C45.18 428.62 43.61 430.88 43.09 432.98C42.57 435.07 42.48 437.08 42.83 438.99C43.18 440.91 44.18 443.04 45.83 445.39C47.49 447.74 50.06 449.09 53.55 449.43ZM108.17 323.45V367.36V406.83C108.17 412.23 106.91 417.51 104.4 422.64C101.88 427.78 98.51 432.4 94.26 436.49C90.01 440.59 84.98 443.85 79.17 446.29C73.36 448.73 67.25 449.95 60.84 449.95C59.97 449.95 59.19 449.95 58.5 449.95C57.8 449.95 57.03 449.86 56.16 449.69C58.42 449.52 60.3 448.38 61.78 446.29C63.26 444.2 64.35 441.37 65.05 437.8C65.75 434.23 66.23 430.05 66.49 425.25C66.75 420.46 66.88 415.45 66.88 410.22V368.4V351.93V323.96V307.23V281.62V273.52C66.88 271.61 66.27 270.04 65.05 268.82C63.83 267.6 62.26 266.99 60.35 266.99H66.1H108.96H114.71C112.79 266.99 111.22 267.6 110.01 268.82C108.79 270.04 108.18 271.61 108.18 273.52V311.16V323.45H108.17Z" fill="url(#paint0_linear)"/>
<path d="M140.06 421.73C139.54 425.74 139.84 429.48 140.98 432.97C142.11 436.46 143.85 439.46 146.21 441.99C148.56 444.52 151.35 446.48 154.57 447.87C157.79 449.27 161.24 449.96 164.89 449.96H109.74C113.4 449.96 116.8 449.18 119.93 447.61C123.07 446.04 125.9 443.95 128.43 441.34C130.95 438.73 133.18 435.72 135.1 432.32C137.01 428.92 138.67 425.39 140.06 421.73ZM180.58 303.59L192.6 267L252.98 445.25C253.5 446.65 254.37 447.78 255.59 448.65C256.81 449.52 258.2 449.96 259.77 449.96H255.85H213.51H209.33C210.38 449.96 211.33 449.57 212.21 448.78C213.08 448 213.52 447 213.52 445.77C213.52 445.42 213.48 445.16 213.39 444.99C213.3 444.82 213.26 444.56 213.26 444.21L190 375.99L184.51 360.05L180.85 348.81L177.19 338.09C176.67 336.35 175.36 335.48 173.27 335.48C171.18 335.48 169.87 336.35 169.35 338.09L175.1 320.84L180.58 303.59Z" fill="url(#paint1_linear)"/>
<path d="M293.23 424.87C293.23 428.36 293.88 431.62 295.19 434.67C296.5 437.72 298.33 440.38 300.68 442.64C303.03 444.91 305.73 446.69 308.78 448C311.83 449.31 315.09 449.96 318.58 449.96H268.14C275.11 449.96 281.03 447.52 285.91 442.64C290.79 437.76 293.23 431.84 293.23 424.87ZM374.25 369.98L390.19 411.02C391.41 413.63 393.33 414.94 395.94 414.94C397.68 414.94 399.16 414.33 400.38 413.11C401.6 411.89 402.21 410.5 402.21 408.93V449.97H361.44L330.08 369.73L317.27 337.32L304.99 305.96C304.12 303.35 302.2 302.04 299.24 302.04C297.5 302.04 296.06 302.65 294.93 303.87C293.79 305.09 293.23 306.57 293.23 308.31V308.05V267H333.74L361.18 336.79L374.25 369.98ZM402.22 292.09C402.22 288.61 401.57 285.34 400.26 282.29C398.95 279.24 397.12 276.58 394.77 274.32C392.42 272.06 389.71 270.27 386.67 268.96C383.62 267.65 380.35 267 376.87 267H427.32C420.35 267 414.42 269.44 409.55 274.32C404.66 279.2 402.22 285.12 402.22 292.09Z" fill="url(#paint2_linear)"/>
<path d="M493.2 267H498.92C497 267 495.43 267.61 494.22 268.83C493 270.05 492.39 271.62 492.39 273.53V311.17V335.48V435.32V443.42C492.39 445.34 493 446.91 494.22 448.12C495.44 449.34 497.01 449.95 498.92 449.95H493.2H462.53H450.31H444.56C446.47 449.95 448.04 449.34 449.26 448.12C450.48 446.9 451.09 445.33 451.09 443.42V435.32V335.48V311.17V288.43V284.51V281.63V273.53C451.09 271.62 450.48 270.05 449.26 268.83C448.04 267.61 446.47 267 444.56 267H450.31H493.2V267ZM501.8 358.48C505.46 358.48 508.99 357.74 512.39 356.26C515.79 354.78 518.79 352.78 521.41 350.25C524.02 347.73 526.11 344.81 527.68 341.49C529.25 338.18 530.03 334.69 530.03 331.03V386.18C530.03 382.52 529.25 378.99 527.68 375.59C526.11 372.19 524.02 369.23 521.41 366.7C518.8 364.18 515.79 362.17 512.39 360.69C508.99 359.22 505.46 358.48 501.8 358.48ZM547.28 267V299.67C547.28 295.32 546.4 291.18 544.67 287.26C542.93 283.34 540.53 279.9 537.48 276.94C534.43 273.98 530.95 271.58 527.03 269.75C523.11 267.92 519.06 267.01 514.88 267.01H547.28V267ZM514.87 449.96C519.05 449.96 523.1 449.09 527.02 447.35C530.94 445.61 534.42 443.21 537.47 440.16C540.52 437.11 542.91 433.63 544.66 429.71C546.4 425.79 547.27 421.74 547.27 417.56V449.97H514.87V449.96Z" fill="url(#paint3_linear)"/>
<path d="M582.56 313.52C585.7 310.04 587.18 306.72 587 303.59C586.82 300.45 585.78 298.54 583.86 297.84C578.11 297.84 573.23 295.84 569.22 291.83C565.21 287.82 563.21 282.94 563.21 277.19C563.21 271.44 565.21 266.56 569.22 262.55C573.22 258.54 578.11 256.54 583.86 256.54C589.61 256.54 594.49 258.54 598.5 262.55C602.51 266.56 604.51 271.44 604.51 277.19C604.51 281.2 603.81 285.03 602.42 288.69C601.02 292.35 599.28 295.79 597.19 299.01C595.1 302.24 592.75 305.07 590.13 307.5C587.53 309.95 585 311.95 582.56 313.52Z" fill="url(#paint4_linear)"/>
<path d="M679.52 267C674.99 267 670.94 267.91 667.37 269.74C663.8 271.57 661.05 274.14 659.14 277.45C657.22 280.76 656.31 284.68 656.4 289.21C656.48 293.74 658.01 298.71 660.97 304.11C663.93 309.69 667.9 314.96 672.86 319.92C677.83 324.89 683.09 329.72 688.67 334.43C694.25 339.13 699.91 343.84 705.66 348.54C711.41 353.24 716.59 358.17 721.21 363.31C725.83 368.45 729.62 373.99 732.58 379.91C735.54 385.84 737.02 392.29 737.02 399.25C737.02 408.31 735.23 416.02 731.66 422.38C728.09 428.74 723.51 433.97 717.94 438.06C712.36 442.16 706 445.16 698.86 447.08C691.71 449 684.66 449.95 677.69 449.95C682.04 449.95 686.05 449.04 689.71 447.21C693.37 445.38 696.15 442.81 698.07 439.5C699.98 436.19 700.9 432.27 700.81 427.74C700.72 423.21 699.28 418.24 696.5 412.84C693.36 407.27 689.35 402.04 684.48 397.16C679.6 392.28 674.33 387.45 668.67 382.65C663.01 377.86 657.3 373.11 651.55 368.41C645.8 363.71 640.61 358.78 636 353.64C631.38 348.5 627.59 342.97 624.63 337.04C621.66 331.12 620.19 324.67 620.19 317.7C620.19 308.81 621.97 301.15 625.55 294.7C629.12 288.26 633.69 282.98 639.27 278.89C644.85 274.8 651.16 271.79 658.22 269.87C665.28 267.96 672.38 267 679.52 267ZM666.46 449.17C659.84 448.3 654.08 446.78 649.21 444.6C644.33 442.42 640.41 440.38 637.45 438.46C632.39 434.98 628.26 430.88 625.03 426.18C621.8 421.48 620.2 416.42 620.2 411.02C620.2 405.44 622.2 400.61 626.21 396.51C630.21 392.42 635.1 390.37 640.85 390.37C646.6 390.37 651.48 392.42 655.49 396.51C659.5 400.61 661.5 405.44 661.5 411.02C661.5 417.64 659.06 422.96 654.18 426.96C652.78 428.18 651.44 429.66 650.13 431.4C648.82 433.14 648.43 435.23 648.95 437.67C649.3 440.11 651.17 442.42 654.57 444.6C657.96 446.78 661.92 448.3 666.46 449.17ZM690.76 267.78C697.38 268.65 703.13 270.18 708.01 272.35C712.89 274.53 716.81 276.66 719.77 278.75C724.82 282.24 728.96 286.29 732.19 290.9C735.41 295.52 737.02 300.53 737.02 305.93C737.02 311.68 735.01 316.56 731.01 320.57C727 324.58 722.12 326.58 716.37 326.58C710.62 326.58 705.74 324.58 701.73 320.57C697.72 316.56 695.72 311.68 695.72 305.93C695.72 302.79 696.37 299.83 697.68 297.04C698.99 294.25 700.77 291.9 703.04 289.98C704.43 288.76 705.78 287.28 707.09 285.54C708.4 283.8 708.79 281.71 708.27 279.27C707.92 276.83 706.05 274.52 702.65 272.34C699.26 270.18 695.29 268.66 690.76 267.78Z" fill="url(#paint5_linear)"/>
<path d="M117.6 522.26V520.93H159.97V529.87H159L158.38 528.9C157.38 527.25 155.77 525.92 153.56 524.92C151.35 523.92 148.91 523.42 146.26 523.42H130.96V547.39H139.81C142.05 547.39 144.03 547.11 145.74 546.55C147.45 545.99 148.54 545.27 149.01 544.38L149.36 543.85H150.42V553.94H149.36L149.01 553.32C148.48 552.32 147.37 551.49 145.69 550.84C144.01 550.19 142.05 549.87 139.81 549.87H130.96V572.25C130.96 576.08 132.43 578 135.38 578V579.33H117.6V578C119.96 578 121.14 576.09 121.14 572.25V528.02C121.14 524.18 119.96 522.26 117.6 522.26Z" fill="white"/>
<path d="M224.22 579.32L224.04 578.17H224.66C225.72 578.17 226.36 577.64 226.56 576.58C226.77 575.52 226.52 574.13 225.81 572.42C224.92 570.18 224.01 567.92 223.07 565.65C222.13 563.38 221.21 561.12 220.33 558.88H200.51L196.09 571.62C195.44 573.57 195.29 575.13 195.65 576.31C196 577.49 196.77 578.08 197.95 578.08H198.66V579.41H187.07V578.08C189.37 578.08 191.23 576.31 192.64 572.77L211.84 519.6H214.32L236.79 572.59C238.38 576.19 240.27 577.98 242.45 577.98V579.31H224.22V579.32ZM219.36 556.41L209.63 532.7L201.4 556.41H219.36Z" fill="white"/>
<path d="M308.01 533.5L306.95 533.59C306.65 533.12 306.36 532.62 306.06 532.09C305.76 531.56 305.47 531.06 305.18 530.59C304.18 528.88 302.88 527.38 301.29 526.08C299.7 524.78 298.05 523.93 296.34 523.51C296.34 523.45 296.16 523.39 295.81 523.33C295.46 523.27 295.04 523.21 294.57 523.15C294.04 523.09 293.42 523.03 292.71 522.97C289.17 522.97 286.34 524.02 284.22 526.11C282.1 528.21 281.04 530.96 281.04 534.38C281.04 535.44 281.41 536.53 282.14 537.65C282.88 538.77 283.92 539.86 285.28 540.92C286.64 541.98 288.27 542.98 290.19 543.93C292.11 544.87 294.22 545.7 296.52 546.41C298.82 547.12 300.91 548.06 302.8 549.24C304.69 550.42 306.3 551.75 307.62 553.22C308.95 554.69 309.98 556.27 310.72 557.95C311.46 559.63 311.82 561.36 311.82 563.12C311.82 565.6 311.36 567.87 310.45 569.93C309.54 571.99 308.24 573.76 306.56 575.24C304.88 576.71 302.87 577.85 300.54 578.65C298.21 579.45 295.6 579.84 292.71 579.84C289.23 579.84 285.8 579.46 282.4 578.69C279.01 577.92 276.22 576.92 274.04 575.68V566.83H275.19C275.37 567.13 275.56 567.45 275.77 567.8C275.98 568.15 276.17 568.48 276.35 568.77C277.53 570.83 279.24 572.6 281.48 574.08C283.72 575.55 286.14 576.53 288.73 577C290.09 577.18 291.38 577.26 292.62 577.26C296.28 577.26 299.21 576.33 301.42 574.47C303.63 572.61 304.74 570.15 304.74 567.08C304.74 565.84 304.36 564.6 303.59 563.37C302.82 562.13 301.75 560.94 300.36 559.79C298.97 558.64 297.31 557.56 295.36 556.56C293.41 555.56 291.23 554.67 288.81 553.91C286.63 553.2 284.62 552.29 282.79 551.17C280.96 550.05 279.41 548.81 278.15 547.45C276.88 546.1 275.89 544.62 275.19 543.03C274.48 541.44 274.13 539.82 274.13 538.16C274.13 535.51 274.59 533.09 275.5 530.91C276.41 528.73 277.7 526.87 279.35 525.34C281 523.81 282.99 522.61 285.32 521.76C287.65 520.9 290.23 520.48 293.06 520.48C295.42 520.48 297.95 520.86 300.67 521.63C303.38 522.4 305.83 523.4 308.01 524.64V533.5V533.5Z" fill="white"/>
<path d="M402.42 577.99V579.32H385.52V577.99C387.88 577.99 389.06 576.08 389.06 572.24V549.86H359.78V572.24C359.78 576.07 360.96 577.99 363.32 577.99V579.32H346.42V577.99C348.78 577.99 349.96 576.08 349.96 572.24V528.01C349.96 524.18 348.78 522.26 346.42 522.26V520.93H363.32V522.26C360.96 522.26 359.78 524.18 359.78 528.01V547.38H389.06V528.01C389.06 524.18 387.88 522.26 385.52 522.26V520.93H402.42V522.26C400.06 522.26 398.88 524.18 398.88 528.01V572.24C398.89 576.08 400.06 577.99 402.42 577.99Z" fill="white"/>
<path d="M453.58 577.99V579.32H436.68V577.99C439.04 577.99 440.22 576.08 440.22 572.24V528.01C440.22 524.18 439.04 522.26 436.68 522.26V520.93H453.58V522.26C451.22 522.26 450.04 524.18 450.04 528.01V572.24C450.04 576.08 451.22 577.99 453.58 577.99Z" fill="white"/>
<path d="M488.36 550.13C488.36 546.12 488.98 542.32 490.22 538.72C491.46 535.12 493.32 531.98 495.79 529.3C498.27 526.62 501.33 524.48 504.99 522.89C508.65 521.3 512.89 520.5 517.73 520.5C522.57 520.5 526.81 521.3 530.47 522.89C534.13 524.48 537.18 526.62 539.63 529.3C542.08 531.98 543.92 535.13 545.16 538.72C546.4 542.32 547.02 546.12 547.02 550.13C547.02 554.14 546.4 557.94 545.16 561.54C543.92 565.14 542.08 568.28 539.63 570.96C537.18 573.65 534.13 575.78 530.47 577.37C526.81 578.96 522.57 579.76 517.73 579.76C512.89 579.76 508.65 578.96 504.99 577.37C501.33 575.78 498.27 573.64 495.79 570.96C493.31 568.28 491.46 565.14 490.22 561.54C488.98 557.94 488.36 554.14 488.36 550.13ZM499.24 550.13C499.24 553.79 499.64 557.27 500.43 560.57C501.23 563.87 502.39 566.76 503.93 569.24C505.46 571.72 507.38 573.68 509.68 575.12C511.98 576.57 514.66 577.29 517.73 577.29C520.74 577.29 523.39 576.57 525.69 575.12C527.99 573.68 529.92 571.71 531.48 569.24C533.04 566.76 534.21 563.87 534.97 560.57C535.74 557.27 536.12 553.79 536.12 550.13C536.12 546.47 535.74 542.99 534.97 539.69C534.2 536.39 533.04 533.5 531.48 531.02C529.92 528.54 527.99 526.58 525.69 525.14C523.39 523.7 520.74 522.97 517.73 522.97C514.66 522.97 511.98 523.69 509.68 525.14C507.38 526.59 505.46 528.55 503.93 531.02C502.39 533.5 501.23 536.39 500.43 539.69C499.64 542.99 499.24 546.47 499.24 550.13Z" fill="white"/>
<path d="M582.06 522.26L581.97 520.93H594.27L625.85 565.07V528C625.85 524.17 624.67 522.25 622.31 522.25V520.92H632.39V522.25C630.03 522.25 628.85 524.17 628.85 528V581.08H625.49L588.6 529.59V572.23C588.6 576.06 589.78 577.98 592.14 577.98V579.31H582.06V577.98C584.42 577.98 585.6 576.07 585.6 572.23V528C585.6 524.18 584.42 522.26 582.06 522.26Z" fill="white"/>
<path d="M488.6 102.69C488.22 98.78 487.03 94.85 485.04 90.89C483.03 86.94 480.27 83.2 476.73 79.66C471.97 74.9 467.05 71.45 461.94 69.29C445.43 38.51 412.93 17.52 375.62 17.52C324.8 17.52 282.9 56.47 278.19 106.07C274.53 106.4 271.4 107.87 268.8 110.48C265.93 113.35 263.87 116.71 262.62 120.57C261.38 124.42 260.99 128.43 261.46 132.62C261.93 136.79 263.15 140.98 265.12 145.16C267.08 149.35 269.82 153.2 273.36 156.73C276.8 160.17 280.73 162.81 285.15 164.62C287.56 165.61 289.97 166.33 292.38 166.81C309.64 194.68 340.51 213.29 375.63 213.29C425.58 213.29 466.91 175.68 472.8 127.3C476.28 126.89 479.27 125.44 481.77 122.94C484.38 120.34 486.26 117.29 487.43 113.8C488.58 110.3 488.97 106.6 488.6 102.69ZM479.66 93.48C478.64 95.06 477.29 95.9 475.62 96C474.21 96.08 472.87 96.12 471.59 96.13C471.35 96.14 471.11 96.14 470.87 96.14C468.34 96.14 466.03 96.63 463.95 97.62C462.35 98.37 460.89 99.41 459.57 100.75C456.59 103.73 455.1 107.41 455.1 111.77C455.09 116.15 456.59 119.82 459.57 122.8C461.21 124.44 463.03 125.65 465.05 126.41C459.61 170.91 421.58 205.5 375.63 205.5C345.3 205.5 318.43 190.43 302.09 167.39C305.27 167.17 308.34 166.55 311.33 165.53C315.43 164.13 318.92 161.98 321.8 159.1L397.17 83.72L401.07 79.81C402.1 78.79 403.26 78.28 404.56 78.28C405.86 78.28 407.03 78.8 408.06 79.81L408.89 78.98L406.66 76.75L379.72 49.8L378.88 50.64C379.9 51.67 380.41 52.83 380.41 54.14C380.41 55.44 379.89 56.61 378.87 57.63L299.45 137.05C296.65 139.83 293.87 142.44 291.08 144.87C290.92 145.01 290.77 145.14 290.62 145.26C288.35 147.2 286.19 148.86 284.14 150.22C283.83 150.42 283.52 150.63 283.21 150.82C280.75 152.37 278.49 153.36 276.41 153.8C274.33 154.24 272.61 153.86 271.25 152.69C269.2 151.01 268.2 149.03 268.25 146.76C268.29 144.48 268.74 142.73 269.57 141.52C270.42 140.31 271.53 139.29 272.93 138.45C274.32 137.62 276.37 137.25 279.06 137.34C279.45 137.37 279.84 137.37 280.22 137.37C282.96 137.35 285.46 136.65 287.74 135.26C288.86 134.58 289.92 133.74 290.93 132.73C293.91 129.75 295.42 126.09 295.45 121.75C295.48 117.41 293.95 113.7 290.86 110.6C289.35 109.1 287.71 107.96 285.9 107.2C290.05 61.36 328.7 25.32 375.61 25.32C407.36 25.32 435.32 41.83 451.38 66.71C450.18 66.61 448.97 66.59 447.76 66.62C437.48 66.94 427.54 71.9 417.96 81.49L358.78 140.67L354.88 144.58C353.85 145.61 352.69 146.12 351.39 146.12C350.08 146.12 348.92 145.6 347.9 144.58L347.06 145.42L376.24 174.59L377.07 173.75C376.04 172.73 375.54 171.56 375.54 170.26C375.54 168.96 376.04 167.8 377.07 166.78L421.18 122.67L424.81 126.3C427.88 129.37 429.41 133.04 429.41 137.32C429.41 141.6 427.88 145.28 424.81 148.35L425.65 149.18L448.54 126.3L447.7 125.45C444.63 128.52 440.95 130.06 436.67 130.06C432.39 130.06 428.72 128.52 425.65 125.45L422.02 121.82L448.12 95.72C452.77 91.06 456.85 87.41 460.35 84.75C462.44 83.16 464.32 81.93 465.99 81.06C466.37 80.87 466.73 80.7 467.09 80.55C471.11 78.85 474.7 79.58 477.85 82.74C478.97 83.85 479.85 85.43 480.51 87.48C481.16 89.52 480.88 91.52 479.66 93.48Z" fill="url(#paint6_linear)"/>
<path d="M472.2 40.29C473.42 41.01 474.39 41.98 475.1 43.21C475.81 44.44 476.16 45.78 476.16 47.23C476.16 48.67 475.81 50 475.1 51.24C474.39 52.48 473.42 53.46 472.19 54.2C470.96 54.93 469.6 55.3 468.12 55.3C466.65 55.3 465.31 54.94 464.09 54.21C462.87 53.48 461.91 52.51 461.2 51.28C460.5 50.05 460.15 48.72 460.15 47.28C460.15 45.84 460.5 44.51 461.21 43.27C461.92 42.03 462.89 41.05 464.11 40.31C465.33 39.58 466.68 39.21 468.17 39.21C469.63 39.21 470.98 39.57 472.2 40.29ZM471.22 52.51C472.15 51.96 472.89 51.22 473.43 50.29C473.97 49.36 474.25 48.34 474.25 47.24C474.25 46.14 473.98 45.12 473.45 44.2C472.91 43.28 472.18 42.54 471.25 42C470.32 41.46 469.29 41.18 468.17 41.18C467.03 41.18 466.01 41.46 465.08 42.01C464.16 42.56 463.43 43.3 462.89 44.23C462.35 45.16 462.09 46.18 462.09 47.28C462.09 48.38 462.35 49.4 462.88 50.32C463.41 51.24 464.13 51.98 465.06 52.52C465.98 53.06 467 53.34 468.12 53.34C469.25 53.33 470.28 53.06 471.22 52.51ZM471.18 47.34C470.95 47.76 470.62 48.07 470.17 48.27L471.76 50.73H469.56L468.45 48.65H468.38H467.03V50.73H465.11V43.23H468.37C469.38 43.23 470.16 43.46 470.7 43.92C471.24 44.38 471.52 45.02 471.52 45.86C471.52 46.43 471.41 46.92 471.18 47.34ZM467.03 47.14H468.38C468.79 47.14 469.11 47.03 469.34 46.82C469.57 46.61 469.68 46.31 469.68 45.93C469.68 45.54 469.57 45.24 469.34 45.04C469.11 44.84 468.79 44.74 468.38 44.74H467.03V47.14Z" fill="url(#paint7_linear)"/>
<defs>
<linearGradient id="paint0_linear" x1="74.5033" y1="171.98" x2="65.758" y2="322.592" gradientUnits="userSpaceOnUse">
<stop stop-color="#EFC3C4" stop-opacity="0"/>
<stop offset="1" stop-color="#B97778"/>
</linearGradient>
<linearGradient id="paint1_linear" x1="200.475" y1="179.294" x2="191.73" y2="329.906" gradientUnits="userSpaceOnUse">
<stop stop-color="#EFC3C4" stop-opacity="0"/>
<stop offset="1" stop-color="#B97778"/>
</linearGradient>
<linearGradient id="paint2_linear" x1="357.598" y1="188.418" x2="348.853" y2="339.03" gradientUnits="userSpaceOnUse">
<stop stop-color="#EFC3C4" stop-opacity="0"/>
<stop offset="1" stop-color="#B97778"/>
</linearGradient>
<linearGradient id="paint3_linear" x1="505.293" y1="196.993" x2="496.548" y2="347.605" gradientUnits="userSpaceOnUse">
<stop stop-color="#EFC3C4" stop-opacity="0"/>
<stop offset="1" stop-color="#B97778"/>
</linearGradient>
<linearGradient id="paint4_linear" x1="588.252" y1="201.81" x2="579.506" y2="352.422" gradientUnits="userSpaceOnUse">
<stop stop-color="#EFC3C4" stop-opacity="0"/>
<stop offset="1" stop-color="#B97778"/>
</linearGradient>
<linearGradient id="paint5_linear" x1="687.374" y1="207.566" x2="678.629" y2="358.178" gradientUnits="userSpaceOnUse">
<stop stop-color="#EFC3C4" stop-opacity="0"/>
<stop offset="1" stop-color="#B97778"/>
</linearGradient>
<linearGradient id="paint6_linear" x1="463.77" y1="16.0312" x2="340.842" y2="154.615" gradientUnits="userSpaceOnUse">
<stop stop-color="#EFC3C4" stop-opacity="0"/>
<stop offset="1" stop-color="#B97778"/>
</linearGradient>
<linearGradient id="paint7_linear" x1="473.495" y1="41.2292" x2="462.807" y2="53.2785" gradientUnits="userSpaceOnUse">
<stop stop-color="#EFC3C4" stop-opacity="0"/>
<stop offset="1" stop-color="#B97778"/>
</linearGradient>
</defs>
</svg>
