<?xml version="1.0" encoding="utf-8"?>
<!-- Generator: Adobe Illustrator 24.0.0, SVG Export Plug-In . SVG Version: 6.00 Build 0)  -->
<svg version="1.1" id="Layer_1" xmlns="http://www.w3.org/2000/svg" xmlns:xlink="http://www.w3.org/1999/xlink" x="0px" y="0px"
	 viewBox="0 0 750 599.06" style="enable-background:new 0 0 750 599.06;" xml:space="preserve">
<style type="text/css">
	.st0{fill:url(#SVGID_1_);}
	.st1{fill:url(#SVGID_2_);}
	.st2{fill:url(#SVGID_3_);}
	.st3{fill:url(#SVGID_4_);}
	.st4{fill:url(#SVGID_5_);}
	.st5{fill:url(#SVGID_6_);}
	.st6{fill:url(#SVGID_7_);}
	.st7{fill:url(#SVGID_8_);}
</style>
<g>
	<linearGradient id="SVGID_1_" gradientUnits="userSpaceOnUse" x1="74.5033" y1="171.9797" x2="65.758" y2="322.5918">
		<stop  offset="0" style="stop-color:#EFC3C4;stop-opacity:0"/>
		<stop  offset="1" style="stop-color:#B97778"/>
	</linearGradient>
	<path class="st0" d="M53.55,449.43c-5.75-0.69-11.07-2.18-15.94-4.44c-4.88-2.26-9.11-5.1-12.68-8.49c-3.57-3.4-6.4-7.27-8.5-11.63
		c-2.09-4.35-3.14-8.97-3.14-13.85c0-5.75,2-10.63,6.01-14.64c4-4.01,8.89-6.01,14.64-6.01c5.75,0,10.63,2,14.64,6.01
		c4.01,4.01,6.01,8.89,6.01,14.64c0,6.1-2.27,11.15-6.8,15.16c-2.61,2.44-4.18,4.7-4.7,6.8c-0.52,2.09-0.61,4.1-0.26,6.01
		c0.35,1.92,1.35,4.05,3,6.4C47.49,447.74,50.06,449.09,53.55,449.43z M108.17,323.45v43.91v39.47c0,5.4-1.26,10.68-3.77,15.81
		c-2.52,5.14-5.89,9.76-10.14,13.85c-4.25,4.1-9.28,7.36-15.09,9.8c-5.81,2.44-11.92,3.66-18.33,3.66c-0.87,0-1.65,0-2.34,0
		c-0.7,0-1.47-0.09-2.34-0.26c2.26-0.17,4.14-1.31,5.62-3.4c1.48-2.09,2.57-4.92,3.27-8.49c0.7-3.57,1.18-7.75,1.44-12.55
		c0.26-4.79,0.39-9.8,0.39-15.03v-41.82v-16.47v-27.97v-16.73v-25.61v-8.1c0-1.91-0.61-3.48-1.83-4.7c-1.22-1.22-2.79-1.83-4.7-1.83
		h5.75h42.86h5.75c-1.92,0-3.49,0.61-4.7,1.83c-1.22,1.22-1.83,2.79-1.83,4.7v37.64V323.45z"/>
	<linearGradient id="SVGID_2_" gradientUnits="userSpaceOnUse" x1="200.4745" y1="179.2942" x2="191.7293" y2="329.9063">
		<stop  offset="0" style="stop-color:#EFC3C4;stop-opacity:0"/>
		<stop  offset="1" style="stop-color:#B97778"/>
	</linearGradient>
	<path class="st1" d="M140.06,421.73c-0.52,4.01-0.22,7.75,0.92,11.24c1.13,3.49,2.87,6.49,5.23,9.02c2.35,2.53,5.14,4.49,8.36,5.88
		c3.22,1.4,6.67,2.09,10.32,2.09h-55.15c3.66,0,7.06-0.78,10.19-2.35c3.14-1.57,5.97-3.66,8.5-6.27c2.52-2.61,4.75-5.62,6.67-9.02
		C137.01,428.92,138.67,425.39,140.06,421.73z M180.58,303.59L192.6,267l60.38,178.25c0.52,1.4,1.39,2.53,2.61,3.4
		c1.22,0.87,2.61,1.31,4.18,1.31h-3.92h-42.34h-4.18c1.05,0,2-0.39,2.88-1.18c0.87-0.78,1.31-1.78,1.31-3.01
		c0-0.35-0.04-0.61-0.13-0.78c-0.09-0.17-0.13-0.43-0.13-0.78l-23.26-68.22l-5.49-15.94l-3.66-11.24l-3.66-10.72
		c-0.52-1.74-1.83-2.61-3.92-2.61c-2.09,0-3.4,0.87-3.92,2.61l5.75-17.25L180.58,303.59z"/>
	<linearGradient id="SVGID_3_" gradientUnits="userSpaceOnUse" x1="357.598" y1="188.4175" x2="348.8527" y2="339.0295">
		<stop  offset="0" style="stop-color:#EFC3C4;stop-opacity:0"/>
		<stop  offset="1" style="stop-color:#B97778"/>
	</linearGradient>
	<path class="st2" d="M293.23,424.87c0,3.49,0.65,6.75,1.96,9.8c1.31,3.05,3.14,5.71,5.49,7.97c2.35,2.27,5.05,4.05,8.1,5.36
		c3.05,1.31,6.31,1.96,9.8,1.96h-50.44c6.97,0,12.89-2.44,17.77-7.32C290.79,437.76,293.23,431.84,293.23,424.87z M374.25,369.98
		l15.94,41.04c1.22,2.61,3.14,3.92,5.75,3.92c1.74,0,3.22-0.61,4.44-1.83c1.22-1.22,1.83-2.61,1.83-4.18v41.04h-40.77l-31.36-80.24
		l-12.81-32.41l-12.28-31.36c-0.87-2.61-2.79-3.92-5.75-3.92c-1.74,0-3.18,0.61-4.31,1.83c-1.14,1.22-1.7,2.7-1.7,4.44v-0.26V267
		h40.51l27.44,69.79L374.25,369.98z M402.22,292.09c0-3.48-0.65-6.75-1.96-9.8c-1.31-3.05-3.14-5.71-5.49-7.97
		c-2.35-2.26-5.06-4.05-8.1-5.36c-3.05-1.31-6.32-1.96-9.8-1.96h50.45c-6.97,0-12.9,2.44-17.77,7.32
		C404.66,279.2,402.22,285.12,402.22,292.09z"/>
	<linearGradient id="SVGID_4_" gradientUnits="userSpaceOnUse" x1="505.2929" y1="196.9933" x2="496.5477" y2="347.6054">
		<stop  offset="0" style="stop-color:#EFC3C4;stop-opacity:0"/>
		<stop  offset="1" style="stop-color:#B97778"/>
	</linearGradient>
	<path class="st3" d="M493.2,267h5.72c-1.92,0-3.49,0.61-4.7,1.83c-1.22,1.22-1.83,2.79-1.83,4.7v37.64v24.31v99.84v8.1
		c0,1.92,0.61,3.49,1.83,4.7c1.22,1.22,2.79,1.83,4.7,1.83h-5.72h-30.67h-12.22h-5.75c1.91,0,3.48-0.61,4.7-1.83
		c1.22-1.22,1.83-2.79,1.83-4.7v-8.1v-99.84v-24.31v-22.74v-3.92v-2.88v-8.1c0-1.91-0.61-3.48-1.83-4.7
		c-1.22-1.22-2.79-1.83-4.7-1.83h5.75H493.2z M501.8,358.48c3.66,0,7.19-0.74,10.59-2.22c3.4-1.48,6.4-3.48,9.02-6.01
		c2.61-2.52,4.7-5.44,6.27-8.76c1.57-3.31,2.35-6.8,2.35-10.46v55.15c0-3.66-0.78-7.19-2.35-10.59c-1.57-3.4-3.66-6.36-6.27-8.89
		c-2.61-2.52-5.62-4.53-9.02-6.01C508.99,359.22,505.46,358.48,501.8,358.48z M547.28,267v32.67c0-4.35-0.88-8.49-2.61-12.41
		c-1.74-3.92-4.14-7.36-7.19-10.32c-3.05-2.96-6.53-5.36-10.45-7.19c-3.92-1.83-7.97-2.74-12.15-2.74H547.28z M514.87,449.96
		c4.18,0,8.23-0.87,12.15-2.61c3.92-1.74,7.4-4.14,10.45-7.19c3.05-3.05,5.44-6.53,7.19-10.45c1.74-3.92,2.61-7.97,2.61-12.15v32.41
		H514.87z"/>
	<linearGradient id="SVGID_5_" gradientUnits="userSpaceOnUse" x1="588.2516" y1="201.8103" x2="579.5063" y2="352.4223">
		<stop  offset="0" style="stop-color:#EFC3C4;stop-opacity:0"/>
		<stop  offset="1" style="stop-color:#B97778"/>
	</linearGradient>
	<path class="st4" d="M582.56,313.52c3.14-3.48,4.62-6.8,4.44-9.93c-0.18-3.14-1.22-5.05-3.14-5.75c-5.75,0-10.63-2-14.64-6.01
		c-4.01-4.01-6.01-8.89-6.01-14.64c0-5.75,2-10.63,6.01-14.64c4-4.01,8.89-6.01,14.64-6.01c5.75,0,10.63,2,14.64,6.01
		c4.01,4.01,6.01,8.89,6.01,14.64c0,4.01-0.7,7.84-2.09,11.5c-1.4,3.66-3.14,7.1-5.23,10.32c-2.09,3.23-4.44,6.06-7.06,8.49
		C587.53,309.95,585,311.95,582.56,313.52z"/>
	<linearGradient id="SVGID_6_" gradientUnits="userSpaceOnUse" x1="687.374" y1="207.5658" x2="678.6287" y2="358.1778">
		<stop  offset="0" style="stop-color:#EFC3C4;stop-opacity:0"/>
		<stop  offset="1" style="stop-color:#B97778"/>
	</linearGradient>
	<path class="st5" d="M679.52,267c-4.53,0-8.58,0.91-12.15,2.74c-3.57,1.83-6.32,4.4-8.23,7.71c-1.92,3.31-2.83,7.23-2.74,11.76
		c0.08,4.53,1.61,9.5,4.57,14.9c2.96,5.58,6.93,10.85,11.89,15.81c4.97,4.97,10.23,9.8,15.81,14.51c5.58,4.7,11.24,9.41,16.99,14.11
		c5.75,4.7,10.93,9.63,15.55,14.77c4.62,5.14,8.41,10.68,11.37,16.6c2.96,5.93,4.44,12.38,4.44,19.34c0,9.06-1.79,16.77-5.36,23.13
		c-3.57,6.36-8.15,11.59-13.72,15.68c-5.58,4.1-11.94,7.1-19.08,9.02c-7.15,1.92-14.2,2.87-21.17,2.87c4.35,0,8.36-0.91,12.02-2.74
		c3.66-1.83,6.44-4.4,8.36-7.71c1.91-3.31,2.83-7.23,2.74-11.76c-0.09-4.53-1.53-9.5-4.31-14.9c-3.14-5.57-7.15-10.8-12.02-15.68
		c-4.88-4.88-10.15-9.71-15.81-14.51c-5.66-4.79-11.37-9.54-17.12-14.24c-5.75-4.7-10.94-9.63-15.55-14.77
		c-4.62-5.14-8.41-10.67-11.37-16.6c-2.97-5.92-4.44-12.37-4.44-19.34c0-8.89,1.78-16.55,5.36-23c3.57-6.44,8.14-11.72,13.72-15.81
		c5.58-4.09,11.89-7.1,18.95-9.02C665.28,267.96,672.38,267,679.52,267z M666.46,449.17c-6.62-0.87-12.38-2.39-17.25-4.57
		c-4.88-2.18-8.8-4.22-11.76-6.14c-5.06-3.48-9.19-7.58-12.42-12.28c-3.23-4.7-4.83-9.76-4.83-15.16c0-5.58,2-10.41,6.01-14.51
		c4-4.09,8.89-6.14,14.64-6.14c5.75,0,10.63,2.05,14.64,6.14c4.01,4.1,6.01,8.93,6.01,14.51c0,6.62-2.44,11.94-7.32,15.94
		c-1.4,1.22-2.74,2.7-4.05,4.44c-1.31,1.74-1.7,3.83-1.18,6.27c0.35,2.44,2.22,4.75,5.62,6.93
		C657.96,446.78,661.92,448.3,666.46,449.17z M690.76,267.78c6.62,0.87,12.37,2.4,17.25,4.57c4.88,2.18,8.8,4.31,11.76,6.4
		c5.05,3.49,9.19,7.54,12.42,12.15c3.22,4.62,4.83,9.63,4.83,15.03c0,5.75-2.01,10.63-6.01,14.64c-4.01,4.01-8.89,6.01-14.64,6.01
		c-5.75,0-10.63-2-14.64-6.01c-4.01-4.01-6.01-8.89-6.01-14.64c0-3.14,0.65-6.1,1.96-8.89c1.31-2.79,3.09-5.14,5.36-7.06
		c1.39-1.22,2.74-2.7,4.05-4.44c1.31-1.74,1.7-3.83,1.18-6.27c-0.35-2.44-2.22-4.75-5.62-6.93
		C699.26,270.18,695.29,268.66,690.76,267.78z"/>
</g>
<g>
	<path d="M117.6,522.26v-1.33h42.37v8.94H159l-0.62-0.97c-1-1.65-2.61-2.98-4.82-3.98c-2.21-1-4.65-1.5-7.3-1.5h-15.3v23.97h8.85
		c2.24,0,4.22-0.28,5.93-0.84c1.71-0.56,2.8-1.28,3.27-2.17l0.35-0.53h1.06v10.09h-1.06l-0.35-0.62c-0.53-1-1.64-1.83-3.32-2.48
		c-1.68-0.65-3.64-0.97-5.88-0.97h-8.85v22.38c0,3.83,1.47,5.75,4.42,5.75v1.33H117.6v-1.33c2.36,0,3.54-1.91,3.54-5.75v-44.23
		C121.14,524.18,119.96,522.26,117.6,522.26z"/>
	<path d="M224.22,579.32l-0.18-1.15h0.62c1.06,0,1.7-0.53,1.9-1.59c0.21-1.06-0.04-2.45-0.75-4.16c-0.89-2.24-1.8-4.5-2.74-6.77
		c-0.94-2.27-1.86-4.53-2.74-6.77h-19.82l-4.42,12.74c-0.65,1.95-0.8,3.51-0.44,4.69c0.35,1.18,1.12,1.77,2.3,1.77h0.71v1.33h-11.59
		v-1.33c2.3,0,4.16-1.77,5.57-5.31l19.2-53.17h2.48l22.47,52.99c1.59,3.6,3.48,5.39,5.66,5.39v1.33H224.22z M219.36,556.41
		l-9.73-23.71l-8.23,23.71H219.36z"/>
	<path d="M308.01,533.5l-1.06,0.09c-0.3-0.47-0.59-0.97-0.89-1.5s-0.59-1.03-0.88-1.5c-1-1.71-2.3-3.21-3.89-4.51
		c-1.59-1.3-3.24-2.15-4.95-2.57c0-0.06-0.18-0.12-0.53-0.18c-0.35-0.06-0.77-0.12-1.24-0.18c-0.53-0.06-1.15-0.12-1.86-0.18
		c-3.54,0-6.37,1.05-8.49,3.14c-2.12,2.1-3.18,4.85-3.18,8.27c0,1.06,0.37,2.15,1.1,3.27c0.74,1.12,1.78,2.21,3.14,3.27
		c1.36,1.06,2.99,2.06,4.91,3.01c1.92,0.94,4.03,1.77,6.33,2.48c2.3,0.71,4.39,1.65,6.28,2.83c1.89,1.18,3.5,2.51,4.82,3.98
		c1.33,1.47,2.36,3.05,3.1,4.73c0.74,1.68,1.1,3.41,1.1,5.17c0,2.48-0.46,4.75-1.37,6.81c-0.91,2.06-2.21,3.83-3.89,5.31
		c-1.68,1.47-3.69,2.61-6.02,3.41c-2.33,0.8-4.94,1.19-7.83,1.19c-3.48,0-6.91-0.38-10.31-1.15c-3.39-0.77-6.18-1.77-8.36-3.01
		v-8.85h1.15c0.18,0.3,0.37,0.62,0.58,0.97c0.21,0.35,0.4,0.68,0.58,0.97c1.18,2.06,2.89,3.83,5.13,5.31
		c2.24,1.47,4.66,2.45,7.25,2.92c1.36,0.18,2.65,0.26,3.89,0.26c3.66,0,6.59-0.93,8.8-2.79c2.21-1.86,3.32-4.32,3.32-7.39
		c0-1.24-0.38-2.48-1.15-3.71c-0.77-1.24-1.84-2.43-3.23-3.58c-1.39-1.15-3.05-2.23-5-3.23c-1.95-1-4.13-1.89-6.55-2.65
		c-2.18-0.71-4.19-1.62-6.02-2.74c-1.83-1.12-3.38-2.36-4.64-3.72c-1.27-1.35-2.26-2.83-2.96-4.42c-0.71-1.59-1.06-3.21-1.06-4.87
		c0-2.65,0.46-5.07,1.37-7.25c0.91-2.18,2.2-4.04,3.85-5.57c1.65-1.53,3.64-2.73,5.97-3.58c2.33-0.86,4.91-1.28,7.74-1.28
		c2.36,0,4.89,0.38,7.61,1.15c2.71,0.77,5.16,1.77,7.34,3.01V533.5z"/>
	<path d="M402.42,577.99v1.33h-16.9v-1.33c2.36,0,3.54-1.91,3.54-5.75v-22.38h-29.28v22.38c0,3.83,1.18,5.75,3.54,5.75v1.33h-16.9
		v-1.33c2.36,0,3.54-1.91,3.54-5.75v-44.23c0-3.83-1.18-5.75-3.54-5.75v-1.33h16.9v1.33c-2.36,0-3.54,1.92-3.54,5.75v19.37h29.28
		v-19.37c0-3.83-1.18-5.75-3.54-5.75v-1.33h16.9v1.33c-2.36,0-3.54,1.92-3.54,5.75v44.23C398.89,576.08,400.06,577.99,402.42,577.99
		z"/>
	<path d="M453.58,577.99v1.33h-16.9v-1.33c2.36,0,3.54-1.91,3.54-5.75v-44.23c0-3.83-1.18-5.75-3.54-5.75v-1.33h16.9v1.33
		c-2.36,0-3.54,1.92-3.54,5.75v44.23C450.04,576.08,451.22,577.99,453.58,577.99z"/>
	<path d="M488.36,550.13c0-4.01,0.62-7.81,1.86-11.41c1.24-3.6,3.1-6.74,5.57-9.42c2.48-2.68,5.54-4.82,9.2-6.41
		c3.66-1.59,7.9-2.39,12.74-2.39s9.08,0.8,12.74,2.39c3.66,1.59,6.71,3.73,9.16,6.41c2.45,2.68,4.29,5.83,5.53,9.42
		c1.24,3.6,1.86,7.4,1.86,11.41c0,4.01-0.62,7.81-1.86,11.41c-1.24,3.6-3.08,6.74-5.53,9.42c-2.45,2.69-5.5,4.82-9.16,6.41
		c-3.66,1.59-7.9,2.39-12.74,2.39s-9.08-0.8-12.74-2.39c-3.66-1.59-6.72-3.73-9.2-6.41c-2.48-2.68-4.33-5.82-5.57-9.42
		C488.98,557.94,488.36,554.14,488.36,550.13z M499.24,550.13c0,3.66,0.4,7.14,1.19,10.44c0.8,3.3,1.96,6.19,3.5,8.67
		c1.53,2.48,3.45,4.44,5.75,5.88c2.3,1.45,4.98,2.17,8.05,2.17c3.01,0,5.66-0.72,7.96-2.17c2.3-1.44,4.23-3.41,5.79-5.88
		c1.56-2.48,2.73-5.37,3.49-8.67c0.77-3.3,1.15-6.78,1.15-10.44s-0.38-7.14-1.15-10.44c-0.77-3.3-1.93-6.19-3.49-8.67
		c-1.56-2.48-3.49-4.44-5.79-5.88c-2.3-1.44-4.95-2.17-7.96-2.17c-3.07,0-5.75,0.72-8.05,2.17c-2.3,1.45-4.22,3.41-5.75,5.88
		c-1.54,2.48-2.7,5.37-3.5,8.67C499.64,542.99,499.24,546.47,499.24,550.13z"/>
	<path d="M582.06,522.26l-0.09-1.33h12.3l31.58,44.14v-37.07c0-3.83-1.18-5.75-3.54-5.75v-1.33h10.08v1.33
		c-2.36,0-3.54,1.92-3.54,5.75v53.08h-3.36l-36.89-51.49v42.64c0,3.83,1.18,5.75,3.54,5.75v1.33h-10.08v-1.33
		c2.36,0,3.54-1.91,3.54-5.75v-44.23C585.6,524.18,584.42,522.26,582.06,522.26z"/>
</g>
<g>
	<linearGradient id="SVGID_7_" gradientUnits="userSpaceOnUse" x1="463.7696" y1="16.0312" x2="340.8421" y2="154.6145">
		<stop  offset="0" style="stop-color:#EFC3C4;stop-opacity:0"/>
		<stop  offset="1" style="stop-color:#B97778"/>
	</linearGradient>
	<path class="st6" d="M488.6,102.69c-0.38-3.91-1.57-7.84-3.56-11.8c-2.01-3.95-4.77-7.69-8.31-11.23
		c-4.76-4.76-9.68-8.21-14.79-10.37c-16.51-30.78-49.01-51.77-86.32-51.77c-50.82,0-92.72,38.95-97.43,88.55
		c-3.66,0.33-6.79,1.8-9.39,4.41c-2.87,2.87-4.93,6.23-6.18,10.09c-1.24,3.85-1.63,7.86-1.16,12.05c0.47,4.17,1.69,8.36,3.66,12.54
		c1.96,4.19,4.7,8.04,8.24,11.57c3.44,3.44,7.37,6.08,11.79,7.89c2.41,0.99,4.82,1.71,7.23,2.19
		c17.26,27.87,48.13,46.48,83.25,46.48c49.95,0,91.28-37.61,97.17-85.99c3.48-0.41,6.47-1.86,8.97-4.36
		c2.61-2.6,4.49-5.65,5.66-9.14C488.58,110.3,488.97,106.6,488.6,102.69z M479.66,93.48c-1.02,1.58-2.37,2.42-4.04,2.52
		c-1.41,0.08-2.75,0.12-4.03,0.13c-0.24,0.01-0.48,0.01-0.72,0.01c-2.53,0-4.84,0.49-6.92,1.48c-1.6,0.75-3.06,1.79-4.38,3.13
		c-2.98,2.98-4.47,6.66-4.47,11.02c-0.01,4.38,1.49,8.05,4.47,11.03c1.64,1.64,3.46,2.85,5.48,3.61
		c-5.44,44.5-43.47,79.09-89.42,79.09c-30.33,0-57.2-15.07-73.54-38.11c3.18-0.22,6.25-0.84,9.24-1.86c4.1-1.4,7.59-3.55,10.47-6.43
		l75.37-75.38l3.9-3.91c1.03-1.02,2.19-1.53,3.49-1.53c1.3,0,2.47,0.52,3.5,1.53l0.83-0.83l-2.23-2.23L379.72,49.8l-0.84,0.84
		c1.02,1.03,1.53,2.19,1.53,3.5c0,1.3-0.52,2.47-1.54,3.49l-79.42,79.42c-2.8,2.78-5.58,5.39-8.37,7.82
		c-0.16,0.14-0.31,0.27-0.46,0.39c-2.27,1.94-4.43,3.6-6.48,4.96c-0.31,0.2-0.62,0.41-0.93,0.6c-2.46,1.55-4.72,2.54-6.8,2.98
		c-2.08,0.44-3.8,0.06-5.16-1.11c-2.05-1.68-3.05-3.66-3-5.93c0.04-2.28,0.49-4.03,1.32-5.24c0.85-1.21,1.96-2.23,3.36-3.07
		c1.39-0.83,3.44-1.2,6.13-1.11c0.39,0.03,0.78,0.03,1.16,0.03c2.74-0.02,5.24-0.72,7.52-2.11c1.12-0.68,2.18-1.52,3.19-2.53
		c2.98-2.98,4.49-6.64,4.52-10.98c0.03-4.34-1.5-8.05-4.59-11.15c-1.51-1.5-3.15-2.64-4.96-3.4c4.15-45.84,42.8-81.88,89.71-81.88
		c31.75,0,59.71,16.51,75.77,41.39c-1.2-0.1-2.41-0.12-3.62-0.09c-10.28,0.32-20.22,5.28-29.8,14.87l-59.18,59.18l-3.9,3.91
		c-1.03,1.03-2.19,1.54-3.49,1.54c-1.31,0-2.47-0.52-3.49-1.54l-0.84,0.84l29.18,29.17l0.83-0.84c-1.03-1.02-1.53-2.19-1.53-3.49
		c0-1.3,0.5-2.46,1.53-3.48l44.11-44.11l3.63,3.63c3.07,3.07,4.6,6.74,4.6,11.02c0,4.28-1.53,7.96-4.6,11.03l0.84,0.83l22.89-22.88
		l-0.84-0.85c-3.07,3.07-6.75,4.61-11.03,4.61c-4.28,0-7.95-1.54-11.02-4.61l-3.63-3.63l26.1-26.1c4.65-4.66,8.73-8.31,12.23-10.97
		c2.09-1.59,3.97-2.82,5.64-3.69c0.38-0.19,0.74-0.36,1.1-0.51c4.02-1.7,7.61-0.97,10.76,2.19c1.12,1.11,2,2.69,2.66,4.74
		C481.16,89.52,480.88,91.52,479.66,93.48z"/>
</g>
<g>
	<linearGradient id="SVGID_8_" gradientUnits="userSpaceOnUse" x1="473.4952" y1="41.2292" x2="462.8072" y2="53.2785">
		<stop  offset="0" style="stop-color:#EFC3C4;stop-opacity:0"/>
		<stop  offset="1" style="stop-color:#B97778"/>
	</linearGradient>
	<path class="st7" d="M472.2,40.29c1.22,0.72,2.19,1.69,2.9,2.92c0.71,1.23,1.06,2.57,1.06,4.02c0,1.44-0.35,2.77-1.06,4.01
		c-0.71,1.24-1.68,2.22-2.91,2.96c-1.23,0.73-2.59,1.1-4.07,1.1c-1.47,0-2.81-0.36-4.03-1.09c-1.22-0.73-2.18-1.7-2.89-2.93
		c-0.7-1.23-1.05-2.56-1.05-4c0-1.44,0.35-2.77,1.06-4.01c0.71-1.24,1.68-2.22,2.9-2.96c1.22-0.73,2.57-1.1,4.06-1.1
		C469.63,39.21,470.98,39.57,472.2,40.29z M471.22,52.51c0.93-0.55,1.67-1.29,2.21-2.22c0.54-0.93,0.82-1.95,0.82-3.05
		c0-1.1-0.27-2.12-0.8-3.04c-0.54-0.92-1.27-1.66-2.2-2.2c-0.93-0.54-1.96-0.82-3.08-0.82c-1.14,0-2.16,0.28-3.09,0.83
		c-0.92,0.55-1.65,1.29-2.19,2.22c-0.54,0.93-0.8,1.95-0.8,3.05c0,1.1,0.26,2.12,0.79,3.04c0.53,0.92,1.25,1.66,2.18,2.2
		c0.92,0.54,1.94,0.82,3.06,0.82C469.25,53.33,470.28,53.06,471.22,52.51z M471.18,47.34c-0.23,0.42-0.56,0.73-1.01,0.93l1.59,2.46
		h-2.2l-1.11-2.08h-0.07h-1.35v2.08h-1.92v-7.5h3.26c1.01,0,1.79,0.23,2.33,0.69c0.54,0.46,0.82,1.1,0.82,1.94
		C471.52,46.43,471.41,46.92,471.18,47.34z M467.03,47.14h1.35c0.41,0,0.73-0.11,0.96-0.32c0.23-0.21,0.34-0.51,0.34-0.89
		c0-0.39-0.11-0.69-0.34-0.89c-0.23-0.2-0.55-0.3-0.96-0.3h-1.35V47.14z"/>
</g>
</svg>
