<svg width="228" height="196" viewBox="0 0 228 196" fill="none" xmlns="http://www.w3.org/2000/svg">
<path d="M227.333 85.17C226.953 81.26 225.763 77.33 223.773 73.37C221.763 69.42 219.003 65.68 215.463 62.14C210.703 57.38 205.783 53.93 200.673 51.77C184.163 20.99 151.663 0 114.353 0C63.5329 0 21.6329 38.95 16.9229 88.55C13.2629 88.88 10.1328 90.35 7.53285 92.96C4.66285 95.83 2.60285 99.19 1.35285 103.05C0.112853 106.9 -0.277151 110.91 0.192849 115.1C0.662849 119.27 1.88285 123.46 3.85285 127.64C5.81285 131.83 8.55284 135.68 12.0928 139.21C15.5328 142.65 19.4629 145.29 23.8829 147.1C26.2929 148.09 28.7029 148.81 31.1129 149.29C48.3729 177.16 79.2429 195.77 114.363 195.77C164.313 195.77 205.643 158.16 211.533 109.78C215.013 109.37 218.003 107.92 220.503 105.42C223.113 102.82 224.993 99.77 226.163 96.28C227.313 92.78 227.703 89.08 227.333 85.17ZM218.393 75.96C217.373 77.54 216.023 78.38 214.353 78.48C212.943 78.56 211.603 78.6 210.323 78.61C210.083 78.62 209.843 78.62 209.603 78.62C207.073 78.62 204.763 79.11 202.683 80.1C201.083 80.85 199.623 81.89 198.303 83.23C195.323 86.21 193.833 89.89 193.833 94.25C193.823 98.63 195.323 102.3 198.303 105.28C199.943 106.92 201.763 108.13 203.783 108.89C198.343 153.39 160.313 187.98 114.363 187.98C84.0329 187.98 57.1629 172.91 40.8229 149.87C44.0029 149.65 47.0728 149.03 50.0628 148.01C54.1628 146.61 57.6528 144.46 60.5328 141.58L135.903 66.2L139.803 62.29C140.833 61.27 141.993 60.76 143.293 60.76C144.593 60.76 145.763 61.28 146.793 62.29L147.623 61.46L145.393 59.23L118.453 32.28L117.613 33.12C118.633 34.15 119.143 35.31 119.143 36.62C119.143 37.92 118.623 39.09 117.603 40.11L38.1829 119.53C35.3829 122.31 32.6028 124.92 29.8128 127.35C29.6528 127.49 29.5029 127.62 29.3529 127.74C27.0829 129.68 24.9229 131.34 22.8729 132.7C22.5629 132.9 22.2529 133.11 21.9429 133.3C19.4829 134.85 17.2229 135.84 15.1429 136.28C13.0629 136.72 11.3429 136.34 9.98286 135.17C7.93286 133.49 6.93286 131.51 6.98286 129.24C7.02286 126.96 7.47287 125.21 8.30287 124C9.15287 122.79 10.2629 121.77 11.6629 120.93C13.0529 120.1 15.1029 119.73 17.7929 119.82C18.1829 119.85 18.5729 119.85 18.9529 119.85C21.6929 119.83 24.1928 119.13 26.4728 117.74C27.5928 117.06 28.6529 116.22 29.6629 115.21C32.6429 112.23 34.1529 108.57 34.1829 104.23C34.2129 99.89 32.6828 96.18 29.5928 93.08C28.0828 91.58 26.4429 90.44 24.6329 89.68C28.7829 43.84 67.4328 7.8 114.343 7.8C146.093 7.8 174.053 24.31 190.113 49.19C188.913 49.09 187.703 49.07 186.493 49.1C176.213 49.42 166.273 54.38 156.693 63.97L97.5129 123.15L93.6129 127.06C92.5829 128.09 91.4229 128.6 90.1229 128.6C88.8129 128.6 87.6529 128.08 86.6329 127.06L85.7929 127.9L114.973 157.07L115.803 156.23C114.773 155.21 114.273 154.04 114.273 152.74C114.273 151.44 114.773 150.28 115.803 149.26L159.913 105.15L163.543 108.78C166.613 111.85 168.143 115.52 168.143 119.8C168.143 124.08 166.613 127.76 163.543 130.83L164.383 131.66L187.273 108.78L186.433 107.93C183.363 111 179.683 112.54 175.403 112.54C171.123 112.54 167.453 111 164.383 107.93L160.753 104.3L186.853 78.2C191.503 73.54 195.583 69.89 199.083 67.23C201.173 65.64 203.053 64.41 204.723 63.54C205.103 63.35 205.463 63.18 205.823 63.03C209.843 61.33 213.433 62.06 216.583 65.22C217.703 66.33 218.583 67.91 219.243 69.96C219.893 72 219.613 74 218.393 75.96Z" fill="url(#paint0_linear)"/>
<defs>
<linearGradient id="paint0_linear" x1="202.502" y1="-1.48881" x2="79.575" y2="137.094" gradientUnits="userSpaceOnUse">
<stop stop-color="#EFC3C4" stop-opacity="0"/>
<stop offset="1" stop-color="#B97778"/>
</linearGradient>
</defs>
</svg>
