<svg width="24" height="24" viewBox="0 0 24 24" fill="none" xmlns="http://www.w3.org/2000/svg">
<path d="M18.6131 0H5.38691C2.4118 0 0 2.4118 0 5.38691V18.6131C0 21.5882 2.4118 24 5.38691 24H18.6131C21.5882 24 24 21.5882 24 18.6131V5.38691C24 2.4118 21.5882 0 18.6131 0Z" fill="#189D0E"/>
<path fill-rule="evenodd" clip-rule="evenodd" d="M5.894 18.1392L6.08521 17.416C6.28472 16.6761 6.49255 15.9446 6.68375 15.2047C6.72431 15.089 6.72431 14.963 6.68375 14.8473C5.99728 13.5665 5.79174 12.0825 6.10433 10.6634C6.41691 9.24434 7.22698 7.98397 8.38802 7.11022C9.54907 6.23648 10.9844 5.80704 12.4346 5.89958C13.8847 5.99211 15.2539 6.60051 16.2945 7.61474C17.335 8.62897 17.9783 9.98208 18.108 11.4294C18.2377 12.8766 17.8452 14.3226 17.0015 15.5056C16.1578 16.6887 14.9186 17.5308 13.508 17.8797C12.0974 18.2285 10.6086 18.0611 9.3107 17.4077C9.18911 17.3683 9.05819 17.3683 8.93661 17.4077C7.29061 17.7735 6.22653 18.0727 5.894 18.1392ZM7.31555 16.7426C7.92241 16.5847 8.47939 16.4434 9.03637 16.2937C9.10572 16.2727 9.17883 16.2669 9.25061 16.277C9.3224 16.287 9.39113 16.3126 9.45202 16.3519C10.4635 16.9563 11.6562 17.183 12.8188 16.992C13.8875 16.8239 14.8747 16.3196 15.6372 15.5523C16.3996 14.7849 16.8977 13.7945 17.059 12.7248C17.2203 11.6552 17.0365 10.5619 16.5342 9.60388C16.0319 8.64581 15.2373 7.87277 14.2658 7.39702C13.2942 6.92127 12.1964 6.76756 11.1315 6.95822C10.0667 7.14888 9.09039 7.67398 8.3443 8.45727C7.59821 9.24056 7.12121 10.2413 6.98256 11.3141C6.84391 12.3869 7.05082 13.476 7.57326 14.4233C7.6678 14.5632 7.72766 14.7237 7.7479 14.8914C7.76814 15.0591 7.74817 15.2292 7.68964 15.3876C7.54 15.7949 7.48181 16.2522 7.31555 16.7426Z" fill="white"/>
<path fill-rule="evenodd" clip-rule="evenodd" d="M13.6086 14.8722C12.4198 14.8306 10.5244 13.8912 9.22757 11.6384C8.99229 11.278 8.89164 10.8462 8.94334 10.4189C8.99504 9.99163 9.19577 9.59627 9.51021 9.3024C9.62059 9.2197 9.74981 9.16576 9.88622 9.14545C10.0226 9.12513 10.162 9.13907 10.2916 9.18602C10.3582 9.18602 10.4247 9.29409 10.4579 9.3689C10.6325 9.75962 10.7987 10.1587 10.9484 10.5577C11.0315 10.7738 10.8819 10.9733 10.5743 11.3225C10.5322 11.3709 10.509 11.4329 10.509 11.4971C10.509 11.5612 10.5322 11.6232 10.5743 11.6716C11.049 12.5004 11.7947 13.1403 12.6858 13.4839C12.7406 13.5127 12.804 13.5202 12.864 13.5048C12.9239 13.4894 12.9759 13.4524 13.01 13.4008C13.4922 12.8105 13.5421 12.636 13.8414 12.7523C15.0717 13.3426 15.1631 13.3675 15.1715 13.5005C15.1793 13.6996 15.1425 13.898 15.0639 14.0811C14.9852 14.2642 14.8667 14.4274 14.7169 14.5588C14.5672 14.6903 14.3899 14.7866 14.1982 14.8408C14.0064 14.8951 13.805 14.9058 13.6086 14.8722Z" fill="white"/>
</svg>
